<svg xmlns="http://www.w3.org/2000/svg" viewBox="0 0 816 180" width="816" height="180">
  <!--
    NovaTech Tech Icon Set
    Generated by: art_studio (illustrator)
    Style: 2px stroke, rounded caps/joins, 24x24 grid, geometric minimalist
  -->
  <defs>
    <style>
      .icon-stroke {
        fill: none;
        stroke: #4F6FFF;
        stroke-width: 2;
        stroke-linecap: round;
        stroke-linejoin: round;
      }
      .icon-bg {
        fill: #F0F4FD;
        rx: 8;
      }
    </style>
  </defs>

  <!-- Icon 1: Cloud Server -->
  <g transform="translate(16, 20)">
    <rect class="icon-bg" width="64" height="64"/>
    <g class="icon-stroke" transform="translate(20, 16)">
      <rect x="0" y="4" width="24" height="6" rx="2"/>
      <rect x="0" y="12" width="24" height="6" rx="2"/>
      <circle cx="4" cy="7" r="1" fill="#4F6FFF"/>
      <circle cx="4" cy="15" r="1" fill="#4F6FFF"/>
    </g>
    <g class="icon-stroke" transform="translate(20, 4)">
      <path d="M6 4 C4 4 3 5 2.5 6.5 C1.5 6.5 0.5 7.5 0.5 8.5 C0.5 10 2 11 3.5 10.5 C4 11.5 5.5 12 7 12 h10 c2.5 0 4.5 -2 4.5 -4.5 C21.5 5.5 20 4 18 3.5 C17.5 2 16 1 14 1 H7"/>
    </g>
  </g>

  <!-- Icon 2: Code / Terminal -->
  <g transform="translate(96, 20)">
    <rect class="icon-bg" width="64" height="64"/>
    <g class="icon-stroke" transform="translate(104, 20)">
      <rect x="0" y="0" width="24" height="18" rx="3"/>
      <polyline points="7,6 4,9 7,12"/>
      <line x1="12" y1="12" x2="17" y2="12"/>
    </g>
  </g>

  <!-- Icon 3: Deploy / Rocket -->
  <g transform="translate(176, 20)">
    <rect class="icon-bg" width="64" height="64"/>
    <g class="icon-stroke" transform="translate(196, 20)">
      <path d="M12 2 C12 2 8 7 8 13 C8 17 9.5 20 12 20 C14.5 20 16 17 16 13 C16 7 12 2 12 2Z"/>
      <circle cx="12" cy="12" r="3"/>
      <line x1="12" y1="20" x2="12" y2="24"/>
      <path d="M8 16 L5 20"/>
      <path d="M16 16 L19 20"/>
    </g>
  </g>

  <!-- Icon 4: Shield / Security -->
  <g transform="translate(256, 20)">
    <rect class="icon-bg" width="64" height="64"/>
    <g class="icon-stroke" transform="translate(276, 20)">
      <path d="M12 1 L3 5 L3 12 C3 18 7 22 12 23 C17 22 21 18 21 12 L21 5 Z"/>
      <polyline points="8,12 11,15 16,9"/>
    </g>
  </g>

  <!-- Icon 5: Chart / Analytics -->
  <g transform="translate(336, 20)">
    <rect class="icon-bg" width="64" height="64"/>
    <g class="icon-stroke" transform="translate(356, 20)">
      <rect x="2" y="12" width="4" height="8" rx="1"/>
      <rect x="8" y="7" width="4" height="13" rx="1"/>
      <rect x="14" y="3" width="4" height="17" rx="1"/>
      <path d="M6 9 L10 5 L16 9"/>
      <circle cx="6" cy="9" r="1.5" fill="#4F6FFF"/>
      <circle cx="10" cy="5" r="1.5" fill="#4F6FFF"/>
      <circle cx="16" cy="9" r="1.5" fill="#4F6FFF"/>
    </g>
  </g>

  <!-- Icon 6: Network / Connections -->
  <g transform="translate(416, 20)">
    <rect class="icon-bg" width="64" height="64"/>
    <g class="icon-stroke" transform="translate(436, 20)">
      <circle cx="5" cy="5" r="4"/>
      <circle cx="19" cy="5" r="4"/>
      <circle cx="12" cy="17" r="4"/>
      <circle cx="5" cy="5" r="1.5" fill="#4F6FFF"/>
      <circle cx="19" cy="5" r="1.5" fill="#4F6FFF"/>
      <circle cx="12" cy="17" r="1.5" fill="#4F6FFF"/>
      <line x1="8.5" y1="6.5" x2="15.5" y2="4.5"/>
      <line x1="5.5" y1="8.5" x2="11.5" y2="13.5"/>
      <line x1="18" y1="6" x2="13" y2="14"/>
    </g>
  </g>

  <!-- Row 2: Same 6 icons in accent color for dark mode variant -->
  <text x="16" y="148" font-family="Inter, sans-serif" font-size="13" fill="#9CA3AF" font-weight="600">Light variant above · Dark variant below (accent color)</text>

  <!-- Icon 1: Cloud Server (dark/accent) -->
  <g transform="translate(16, 108)">
    <rect width="64" height="64" rx="8" fill="#1E2D8A"/>
    <g transform="translate(20, 24)" fill="none" stroke="#FF6B35" stroke-width="2" stroke-linecap="round" stroke-linejoin="round">
      <rect x="0" y="4" width="24" height="6" rx="2"/>
      <rect x="0" y="12" width="24" height="6" rx="2"/>
      <circle cx="4" cy="7" r="1" fill="#FF6B35" stroke="none"/>
      <circle cx="4" cy="15" r="1" fill="#FF6B35" stroke="none"/>
      <path d="M6 4 C4 4 3 5 2.5 6.5 C1.5 6.5 0.5 7.5 0.5 8.5 C0.5 10 2 11 3.5 10.5 C4 11.5 5.5 12 7 12 h10 c2.5 0 4.5 -2 4.5 -4.5 C21.5 5.5 20 4 18 3.5 C17.5 2 16 1 14 1 H7"/>
    </g>
  </g>

  <!-- Icon 2: Terminal (dark/accent) -->
  <g transform="translate(96, 108)">
    <rect width="64" height="64" rx="8" fill="#1E2D8A"/>
    <g transform="translate(104, 28)" fill="none" stroke="#FF6B35" stroke-width="2" stroke-linecap="round" stroke-linejoin="round">
      <rect x="0" y="0" width="24" height="18" rx="3"/>
      <polyline points="7,6 4,9 7,12"/>
      <line x1="12" y1="12" x2="17" y2="12"/>
    </g>
  </g>

  <!-- Icon 3: Rocket (dark/accent) -->
  <g transform="translate(176, 108)">
    <rect width="64" height="64" rx="8" fill="#1E2D8A"/>
    <g transform="translate(196, 28)" fill="none" stroke="#FF6B35" stroke-width="2" stroke-linecap="round" stroke-linejoin="round">
      <path d="M12 2 C12 2 8 7 8 13 C8 17 9.5 20 12 20 C14.5 20 16 17 16 13 C16 7 12 2 12 2Z"/>
      <circle cx="12" cy="12" r="3"/>
      <line x1="12" y1="20" x2="12" y2="24"/>
      <path d="M8 16 L5 20"/>
      <path d="M16 16 L19 20"/>
    </g>
  </g>

  <!-- Icon 4: Shield (dark/accent) -->
  <g transform="translate(256, 108)">
    <rect width="64" height="64" rx="8" fill="#1E2D8A"/>
    <g transform="translate(276, 28)" fill="none" stroke="#FF6B35" stroke-width="2" stroke-linecap="round" stroke-linejoin="round">
      <path d="M12 1 L3 5 L3 12 C3 18 7 22 12 23 C17 22 21 18 21 12 L21 5 Z"/>
      <polyline points="8,12 11,15 16,9"/>
    </g>
  </g>

  <!-- Icon 5: Chart (dark/accent) -->
  <g transform="translate(336, 108)">
    <rect width="64" height="64" rx="8" fill="#1E2D8A"/>
    <g transform="translate(356, 28)" fill="none" stroke="#FF6B35" stroke-width="2" stroke-linecap="round" stroke-linejoin="round">
      <rect x="2" y="12" width="4" height="8" rx="1"/>
      <rect x="8" y="7" width="4" height="13" rx="1"/>
      <rect x="14" y="3" width="4" height="17" rx="1"/>
      <path d="M6 9 L10 5 L16 9"/>
      <circle cx="6" cy="9" r="1.5" fill="#FF6B35" stroke="none"/>
      <circle cx="10" cy="5" r="1.5" fill="#FF6B35" stroke="none"/>
      <circle cx="16" cy="9" r="1.5" fill="#FF6B35" stroke="none"/>
    </g>
  </g>

  <!-- Icon 6: Network (dark/accent) -->
  <g transform="translate(416, 108)">
    <rect width="64" height="64" rx="8" fill="#1E2D8A"/>
    <g transform="translate(436, 28)" fill="none" stroke="#FF6B35" stroke-width="2" stroke-linecap="round" stroke-linejoin="round">
      <circle cx="5" cy="5" r="4"/>
      <circle cx="19" cy="5" r="4"/>
      <circle cx="12" cy="17" r="4"/>
      <circle cx="5" cy="5" r="1.5" fill="#FF6B35" stroke="none"/>
      <circle cx="19" cy="5" r="1.5" fill="#FF6B35" stroke="none"/>
      <circle cx="12" cy="17" r="1.5" fill="#FF6B35" stroke="none"/>
      <line x1="8.5" y1="6.5" x2="15.5" y2="4.5"/>
      <line x1="5.5" y1="8.5" x2="11.5" y2="13.5"/>
      <line x1="18" y1="6" x2="13" y2="14"/>
    </g>
  </g>
</svg>
